<?xml version="1.0" encoding="utf-8"?>
<!-- Generator: Adobe Illustrator 18.0.0, SVG Export Plug-In . SVG Version: 6.00 Build 0)  -->
<!DOCTYPE svg PUBLIC "-//W3C//DTD SVG 1.1//EN" "http://www.w3.org/Graphics/SVG/1.1/DTD/svg11.dtd">
<svg version="1.1" id="Layer_1" xmlns="http://www.w3.org/2000/svg" xmlns:xlink="http://www.w3.org/1999/xlink" x="0px" y="0px"
	 viewBox="0 0 60 55.2" enable-background="new 0 0 60 55.2" xml:space="preserve">
<path fill="#425661" d="M55.2,0H33.6c-1.4,0-2.7,0.7-3.6,1.7c-0.9-1-2.2-1.7-3.6-1.7H4.8C2.1,0,0,2.2,0,4.8v40.8
	c0,2.6,2.1,4.8,4.8,4.8h21.6c0,0,0,0,0.1,0c1.3,0,2.3,1.1,2.3,2.3v2.5h2.4v-1.3h0v-1.1c0-1.3,1-2.4,2.3-2.4c0,0,0,0,0.1,0h21.6
	c2.7,0,4.8-2.2,4.8-4.8V4.8C60,2.2,57.9,0,55.2,0z M2.4,45.6V4.8c0-1.3,1.1-2.4,2.4-2.4h21.6c1.3,0,2.4,1.1,2.4,2.4v40.8
	c0,1.3-1.1,2.4-2.4,2.4H4.8C3.5,48,2.4,46.9,2.4,45.6z M57.6,45.6c0,1.3-1.1,2.4-2.4,2.4H33.6c-1.3,0-2.4-1.1-2.4-2.4v-1V4.8
	c0-1.3,1.1-2.4,2.4-2.4h21.6c1.3,0,2.4,1.1,2.4,2.4V45.6z"/>
</svg>
