<?xml version="1.0" encoding="utf-8"?>
<!-- Generator: Adobe Illustrator 18.0.0, SVG Export Plug-In . SVG Version: 6.00 Build 0)  -->
<!DOCTYPE svg PUBLIC "-//W3C//DTD SVG 1.1//EN" "http://www.w3.org/Graphics/SVG/1.1/DTD/svg11.dtd">
<svg version="1.1" id="Layer_1" xmlns="http://www.w3.org/2000/svg" xmlns:xlink="http://www.w3.org/1999/xlink" x="0px" y="0px"
	 viewBox="0 0 72 43.2" enable-background="new 0 0 72 43.2" xml:space="preserve">
<g>
	<path fill="#425661" d="M36,0C22.8,0,12.6,8.2,0,21.6C10.8,33,19.9,43.2,36,43.2c16.1,0,27.9-12.9,36-21.4C63.7,11.9,51.9,0,36,0z
		 M36,40.8c-14.3,0-22.9-8.8-32.7-19.2C15,9.4,24.3,2.4,36,2.4c13.9,0,24.7,10,32.8,19.3C60.8,30,50.1,40.8,36,40.8z"/>
	<path fill="#425661" d="M36,7.2c-7.9,0-14.4,6.5-14.4,14.4C21.6,29.5,28.1,36,36,36c7.9,0,14.4-6.5,14.4-14.4
		C50.4,13.7,43.9,7.2,36,7.2z M36,33.6c-6.6,0-12-5.4-12-12c0-6.6,5.4-12,12-12s12,5.4,12,12C48,28.2,42.6,33.6,36,33.6z"/>
	<path fill="#425661" d="M36,12c-5.3,0-9.6,4.3-9.6,9.6c0,5.3,4.3,9.6,9.6,9.6s9.6-4.3,9.6-9.6C45.6,16.3,41.3,12,36,12z M36,28.8
		c-4,0-7.2-3.3-7.2-7.2c0-4,3.2-7.2,7.2-7.2s7.2,3.3,7.2,7.2C43.2,25.6,40,28.8,36,28.8z"/>
</g>
</svg>
