<?xml version="1.0" encoding="utf-8"?>
<!-- Generator: Adobe Illustrator 18.0.0, SVG Export Plug-In . SVG Version: 6.00 Build 0)  -->
<!DOCTYPE svg PUBLIC "-//W3C//DTD SVG 1.1//EN" "http://www.w3.org/Graphics/SVG/1.1/DTD/svg11.dtd">
<svg version="1.1" id="Layer_1" xmlns="http://www.w3.org/2000/svg" xmlns:xlink="http://www.w3.org/1999/xlink" x="0px" y="0px"
	 viewBox="0 0 60 60" enable-background="new 0 0 60 60" xml:space="preserve">
<path fill="#425661" d="M30,0C30,0,30,0,30,0C30,0,30,0,30,0C30,0,29.9,0,30,0C13.4,0,0,13.5,0,30s13.4,30,29.9,30c0,0,0,0,0,0
	c0,0,0,0,0,0c0,0,0,0,0,0c16.6,0,30-13.4,30-30C60,13.4,46.6,0,30,0z M31.2,18c3.2-0.1,6.3-0.5,9.3-1.2c0.9,3.5,1.5,7.6,1.5,12.1
	H31.2V18z M31.2,15.6v-13c3.2,0.9,6.5,5.2,8.6,11.8C37,15.1,34.2,15.5,31.2,15.6z M28.8,2.6v13c-3-0.1-5.9-0.5-8.7-1.2
	C22.2,7.7,25.5,3.4,28.8,2.6z M28.8,18v10.8H17.9c0.1-4.5,0.6-8.6,1.5-12.1C22.5,17.4,25.6,17.9,28.8,18z M15.5,28.8H2.4
	C2.7,22.6,5,17,8.7,12.5c2.7,1.5,5.5,2.7,8.5,3.6C16.2,19.9,15.6,24.2,15.5,28.8z M15.5,31.2c0.1,4.6,0.7,8.9,1.6,12.7
	c-3,0.9-5.8,2.1-8.5,3.6C5,43,2.7,37.4,2.4,31.2H15.5z M17.9,31.2h10.9V42c-3.2,0.1-6.3,0.5-9.3,1.2C18.6,39.7,18,35.7,17.9,31.2z
	 M28.8,44.4v13c-3.3-0.9-6.6-5.2-8.7-11.8C22.9,44.9,25.8,44.5,28.8,44.4z M31.2,57.4v-13c3,0.1,5.8,0.5,8.6,1.1
	C37.7,52.2,34.4,56.5,31.2,57.4z M31.2,42V31.2H42c-0.1,4.5-0.6,8.5-1.5,12.1C37.5,42.5,34.4,42.1,31.2,42z M44.4,31.2h13.2
	C57.3,37.4,55,43,51.3,47.5c-2.7-1.5-5.6-2.7-8.5-3.6C43.7,40.1,44.3,35.8,44.4,31.2z M44.4,28.8c-0.1-4.6-0.7-8.9-1.6-12.7
	c3-0.9,5.9-2.1,8.5-3.6c3.7,4.5,6,10.1,6.2,16.3H44.4z M49.7,10.7c-2.4,1.3-4.9,2.3-7.5,3.1c-1.4-4.5-3.4-8.2-5.7-10.6
	C41.5,4.4,46.1,7,49.7,10.7z M23.5,3.2c-2.3,2.4-4.3,6.1-5.7,10.6c-2.6-0.8-5.1-1.8-7.5-3.1C13.9,7.1,18.4,4.4,23.5,3.2z M10.3,49.3
	c2.4-1.3,4.9-2.3,7.5-3.1c1.4,4.5,3.4,8.2,5.7,10.6C18.4,55.6,13.9,52.9,10.3,49.3z M36.4,56.8c2.3-2.4,4.3-6.1,5.7-10.6
	c2.6,0.8,5.2,1.8,7.5,3.1C46.1,53,41.5,55.6,36.4,56.8z"/>
</svg>
