<?xml version="1.0" encoding="utf-8"?>
<!-- Generator: Adobe Illustrator 18.0.0, SVG Export Plug-In . SVG Version: 6.00 Build 0)  -->
<!DOCTYPE svg PUBLIC "-//W3C//DTD SVG 1.1//EN" "http://www.w3.org/Graphics/SVG/1.1/DTD/svg11.dtd">
<svg version="1.1" id="Layer_1" xmlns="http://www.w3.org/2000/svg" xmlns:xlink="http://www.w3.org/1999/xlink" x="0px" y="0px"
	 viewBox="0 0 57.6 57.6" enable-background="new 0 0 57.6 57.6" xml:space="preserve">
<path fill="#425661" d="M28.8,0C12.9,0,0,12.9,0,28.8c0,15.9,12.9,28.8,28.8,28.8c15.9,0,28.8-12.9,28.8-28.8
	C57.6,12.9,44.7,0,28.8,0z M28.8,2.4c14.6,0,26.4,11.8,26.4,26.4c0,6.4-2.3,12.3-6.1,16.9c-2.6-1.1-8.8-3.3-12.7-4.4
	c-0.3-0.1-0.4-0.1-0.4-1.5c0-1.1,0.5-2.3,0.9-3.2c0.5-1,1.1-2.8,1.3-4.4c0.6-0.7,1.4-2,1.9-4.6c0.4-2.2,0.2-3.1-0.1-3.8
	c0-0.1-0.1-0.2-0.1-0.2c-0.1-0.5,0-3.3,0.4-5.4c0.3-1.5-0.1-4.6-2.1-7.1c-1.3-1.6-3.7-3.6-8.1-3.9l-2.4,0c-4.3,0.3-6.8,2.3-8,3.9
	c-2,2.6-2.3,5.7-2.1,7.1c0.4,2.1,0.5,4.9,0.4,5.4c0,0.1-0.1,0.2-0.1,0.2c-0.3,0.8-0.5,1.6-0.1,3.8c0.5,2.5,1.3,3.9,1.9,4.6
	c0.2,1.6,0.8,3.3,1.3,4.4c0.4,0.8,0.5,1.8,0.5,3.3c0,1.4,0,1.4-0.4,1.5c-4,1.2-10.3,3.5-12.7,4.5c-3.9-4.6-6.2-10.5-6.2-17
	C2.4,14.2,14.2,2.4,28.8,2.4z M10.4,47.7c2.7-1.1,8.1-3,11.6-4.1c2.1-0.6,2.1-2.4,2.1-3.8c0-1.2-0.1-2.9-0.8-4.3c-0.5-1-1-2.7-1.1-4
	c0-0.3-0.2-0.6-0.4-0.8c-0.3-0.3-1-1.4-1.5-3.6c-0.3-1.7-0.2-2.1-0.1-2.5c0.1-0.2,0.1-0.3,0.2-0.5c0.3-1.1,0-4.5-0.4-6.4
	c-0.2-0.8,0-3.2,1.6-5.2c1.4-1.8,3.5-2.8,6.2-3l2.3,0c2.8,0.2,4.9,1.2,6.3,3c1.6,2,1.8,4.4,1.6,5.2c-0.3,1.9-0.7,5.4-0.4,6.4
	c0,0.2,0.1,0.3,0.2,0.5c0.1,0.4,0.3,0.8-0.1,2.5c-0.4,2.2-1.1,3.3-1.5,3.6c-0.2,0.2-0.4,0.5-0.4,0.8c-0.1,1.3-0.6,3-1.1,4
	c-0.5,1.1-1.1,2.6-1.1,4.2c0,1.4,0,3.1,2.1,3.8c3.4,1,8.8,2.9,11.7,4c-4.8,4.7-11.3,7.7-18.6,7.7C21.6,55.2,15.1,52.3,10.4,47.7z"/>
</svg>
